<mxfile host="app.diagrams.net" modified="2021-10-05T21:38:13.019Z" agent="5.0 (Macintosh; Intel Mac OS X 10_15_7) AppleWebKit/537.36 (KHTML, like Gecko) Chrome/94.0.4606.61 Safari/537.36" etag="NXcDvMwf9h8c1Dl-ftYl" version="15.4.3" type="github">
  <diagram id="R2lEEEUBdFMjLlhIrx00" name="Page-1">
    <mxGraphModel dx="988" dy="538" grid="1" gridSize="10" guides="1" tooltips="1" connect="1" arrows="1" fold="1" page="1" pageScale="1" pageWidth="850" pageHeight="1100" math="0" shadow="0" extFonts="Permanent Marker^https://fonts.googleapis.com/css?family=Permanent+Marker">
      <root>
        <mxCell id="0" />
        <mxCell id="1" parent="0" />
        <mxCell id="VaEB4J-IMZiX3K2f-FIM-4" value="&lt;u&gt;competidor id&lt;/u&gt;" style="ellipse;whiteSpace=wrap;html=1;" vertex="1" parent="1">
          <mxGeometry x="100" y="185" width="120" height="40" as="geometry" />
        </mxCell>
        <mxCell id="VaEB4J-IMZiX3K2f-FIM-5" value="Nombre" style="ellipse;whiteSpace=wrap;html=1;" vertex="1" parent="1">
          <mxGeometry x="210" y="250" width="120" height="40" as="geometry" />
        </mxCell>
        <mxCell id="VaEB4J-IMZiX3K2f-FIM-6" value="Carrera" style="ellipse;whiteSpace=wrap;html=1;" vertex="1" parent="1">
          <mxGeometry x="200" y="135" width="120" height="35" as="geometry" />
        </mxCell>
        <mxCell id="VaEB4J-IMZiX3K2f-FIM-23" style="edgeStyle=none;rounded=0;orthogonalLoop=1;jettySize=auto;html=1;exitX=0;exitY=0.5;exitDx=0;exitDy=0;entryX=1;entryY=0.5;entryDx=0;entryDy=0;" edge="1" parent="1" source="VaEB4J-IMZiX3K2f-FIM-7" target="VaEB4J-IMZiX3K2f-FIM-8">
          <mxGeometry relative="1" as="geometry" />
        </mxCell>
        <mxCell id="VaEB4J-IMZiX3K2f-FIM-7" value="compite" style="shape=rhombus;double=1;perimeter=rhombusPerimeter;whiteSpace=wrap;html=1;align=center;" vertex="1" parent="1">
          <mxGeometry x="425" y="175" width="120" height="60" as="geometry" />
        </mxCell>
        <mxCell id="VaEB4J-IMZiX3K2f-FIM-8" value="Competidor" style="rounded=1;arcSize=10;whiteSpace=wrap;html=1;align=center;" vertex="1" parent="1">
          <mxGeometry x="270" y="185" width="100" height="40" as="geometry" />
        </mxCell>
        <mxCell id="VaEB4J-IMZiX3K2f-FIM-12" value="Disciplina" style="shape=ext;margin=3;double=1;whiteSpace=wrap;html=1;align=center;" vertex="1" parent="1">
          <mxGeometry x="600" y="185" width="100" height="40" as="geometry" />
        </mxCell>
        <mxCell id="VaEB4J-IMZiX3K2f-FIM-15" value="&lt;span style=&quot;border-bottom: 1px dotted&quot;&gt;disciplina id&lt;/span&gt;" style="ellipse;whiteSpace=wrap;html=1;align=center;" vertex="1" parent="1">
          <mxGeometry x="560" y="110" width="100" height="40" as="geometry" />
        </mxCell>
        <mxCell id="VaEB4J-IMZiX3K2f-FIM-16" value="nombre" style="ellipse;whiteSpace=wrap;html=1;" vertex="1" parent="1">
          <mxGeometry x="690" y="132.5" width="120" height="40" as="geometry" />
        </mxCell>
        <mxCell id="VaEB4J-IMZiX3K2f-FIM-21" value="" style="endArrow=none;html=1;startArrow=none;rounded=0;entryX=1;entryY=0.5;entryDx=0;entryDy=0;exitX=0;exitY=0.5;exitDx=0;exitDy=0;" edge="1" parent="1" source="VaEB4J-IMZiX3K2f-FIM-12" target="VaEB4J-IMZiX3K2f-FIM-7">
          <mxGeometry width="50" height="50" relative="1" as="geometry">
            <mxPoint x="620" y="180" as="sourcePoint" />
            <mxPoint x="550" y="215" as="targetPoint" />
          </mxGeometry>
        </mxCell>
        <mxCell id="VaEB4J-IMZiX3K2f-FIM-22" value="" style="shape=waypoint;sketch=0;fillStyle=solid;size=6;pointerEvents=1;points=[];fillColor=none;resizable=0;rotatable=0;perimeter=centerPerimeter;snapToPoint=1;shadow=0;" vertex="1" parent="1">
          <mxGeometry x="580" y="185" width="40" height="40" as="geometry" />
        </mxCell>
        <mxCell id="VaEB4J-IMZiX3K2f-FIM-24" value="premio" style="ellipse;whiteSpace=wrap;html=1;" vertex="1" parent="1">
          <mxGeometry x="590" y="260" width="120" height="40" as="geometry" />
        </mxCell>
        <mxCell id="VaEB4J-IMZiX3K2f-FIM-26" value="" style="endArrow=none;html=1;startArrow=none;rounded=0;entryX=1;entryY=0.5;entryDx=0;entryDy=0;exitX=-0.011;exitY=0.622;exitDx=0;exitDy=0;exitPerimeter=0;" edge="1" parent="1" source="VaEB4J-IMZiX3K2f-FIM-8" target="VaEB4J-IMZiX3K2f-FIM-4">
          <mxGeometry width="50" height="50" relative="1" as="geometry">
            <mxPoint x="310" y="175" as="sourcePoint" />
            <mxPoint x="240" y="210" as="targetPoint" />
          </mxGeometry>
        </mxCell>
        <mxCell id="VaEB4J-IMZiX3K2f-FIM-27" value="" style="endArrow=none;html=1;startArrow=none;rounded=0;entryX=0.343;entryY=0.004;entryDx=0;entryDy=0;exitX=0.098;exitY=1.003;exitDx=0;exitDy=0;exitPerimeter=0;entryPerimeter=0;" edge="1" parent="1" source="VaEB4J-IMZiX3K2f-FIM-8" target="VaEB4J-IMZiX3K2f-FIM-5">
          <mxGeometry width="50" height="50" relative="1" as="geometry">
            <mxPoint x="278.89999999999986" y="229.88" as="sourcePoint" />
            <mxPoint x="229.99999999999864" y="225" as="targetPoint" />
          </mxGeometry>
        </mxCell>
        <mxCell id="VaEB4J-IMZiX3K2f-FIM-28" value="" style="endArrow=none;html=1;startArrow=none;rounded=0;entryX=0.617;entryY=0.991;entryDx=0;entryDy=0;exitX=0.25;exitY=0;exitDx=0;exitDy=0;entryPerimeter=0;" edge="1" parent="1" source="VaEB4J-IMZiX3K2f-FIM-8" target="VaEB4J-IMZiX3K2f-FIM-6">
          <mxGeometry width="50" height="50" relative="1" as="geometry">
            <mxPoint x="334.4499999999999" y="185" as="sourcePoint" />
            <mxPoint x="285.54999999999865" y="180.12" as="targetPoint" />
          </mxGeometry>
        </mxCell>
        <mxCell id="VaEB4J-IMZiX3K2f-FIM-29" value="(1,1)" style="text;html=1;align=center;verticalAlign=middle;resizable=0;points=[];autosize=1;strokeColor=none;fillColor=none;" vertex="1" parent="1">
          <mxGeometry x="370" y="175" width="40" height="20" as="geometry" />
        </mxCell>
        <mxCell id="VaEB4J-IMZiX3K2f-FIM-30" value="(1,3)" style="text;html=1;align=center;verticalAlign=middle;resizable=0;points=[];autosize=1;strokeColor=none;fillColor=none;" vertex="1" parent="1">
          <mxGeometry x="560" y="175" width="40" height="20" as="geometry" />
        </mxCell>
        <mxCell id="VaEB4J-IMZiX3K2f-FIM-31" value="" style="endArrow=none;html=1;startArrow=none;rounded=0;entryX=0.323;entryY=0.018;entryDx=0;entryDy=0;entryPerimeter=0;exitX=0.25;exitY=1;exitDx=0;exitDy=0;" edge="1" parent="1" source="VaEB4J-IMZiX3K2f-FIM-12" target="VaEB4J-IMZiX3K2f-FIM-24">
          <mxGeometry width="50" height="50" relative="1" as="geometry">
            <mxPoint x="685" y="225" as="sourcePoint" />
            <mxPoint x="615" y="260" as="targetPoint" />
          </mxGeometry>
        </mxCell>
        <mxCell id="VaEB4J-IMZiX3K2f-FIM-32" value="" style="endArrow=none;html=1;startArrow=none;rounded=0;exitX=0.5;exitY=1;exitDx=0;exitDy=0;entryX=0.196;entryY=0.012;entryDx=0;entryDy=0;entryPerimeter=0;" edge="1" parent="1" source="VaEB4J-IMZiX3K2f-FIM-15" target="VaEB4J-IMZiX3K2f-FIM-12">
          <mxGeometry width="50" height="50" relative="1" as="geometry">
            <mxPoint x="680" y="150" as="sourcePoint" />
            <mxPoint x="630" y="180" as="targetPoint" />
          </mxGeometry>
        </mxCell>
        <mxCell id="VaEB4J-IMZiX3K2f-FIM-34" value="" style="endArrow=none;html=1;startArrow=none;rounded=0;exitX=0.231;exitY=0.907;exitDx=0;exitDy=0;entryX=1;entryY=0;entryDx=0;entryDy=0;exitPerimeter=0;" edge="1" parent="1" source="VaEB4J-IMZiX3K2f-FIM-16" target="VaEB4J-IMZiX3K2f-FIM-12">
          <mxGeometry width="50" height="50" relative="1" as="geometry">
            <mxPoint x="720" y="170" as="sourcePoint" />
            <mxPoint x="729.6000000000001" y="205.48000000000002" as="targetPoint" />
          </mxGeometry>
        </mxCell>
      </root>
    </mxGraphModel>
  </diagram>
</mxfile>
